<?xml version="1.0" standalone="no"?>
<!DOCTYPE svg PUBLIC "-//W3C//DTD SVG 1.1//EN" "http://www.w3.org/Graphics/SVG/1.1/DTD/svg11.dtd">
<!--Generator: Xara Designer (www.xara.com), SVG filter version: 6.3.0.4-->
<svg stroke-width="0.501" stroke-linejoin="bevel" fill-rule="evenodd" xmlns:xlink="http://www.w3.org/1999/xlink" xmlns="http://www.w3.org/2000/svg" version="1.1" overflow="visible" width="36pt" height="36pt" viewBox="0 0 36 36">
 <defs>
	</defs>
 <g id="Document" fill="none" stroke="black" font-family="Times New Roman" font-size="16" transform="scale(1 -1)">
  <g id="Spread" transform="translate(0 -36)">
   <g id="Layer 1">
    <g id="Group" stroke-linecap="round" stroke="none">
     <path d="M 3.32,28.417 C 9.07,36.52 20.315,38.429 28.417,32.68 C 36.52,26.93 38.429,15.685 32.68,7.583 C 26.93,-0.52 15.685,-2.429 7.583,3.32 C -0.52,9.07 -2.429,20.315 3.32,28.417 Z" fill="#ffffff" stroke-width="5.946" stroke-linejoin="miter" marker-start="none" marker-end="none" stroke-miterlimit="79.8403193612775"/>
     <g id="Group_1">
      <path d="M 17.038,3.634 C 14.772,3.785 12.665,4.454 10.822,5.516 L 7.17,4.214 L 7.547,8.102 L 7.557,8.092 L 7.547,8.1 C 4.88,10.916 3.354,14.793 3.635,18.963 C 4.166,26.893 11.033,32.898 18.963,32.365 C 26.894,31.834 32.898,24.967 32.366,17.037 C 31.835,9.107 24.968,3.102 17.038,3.634 Z" fill="#ef7878" stroke-linejoin="miter" stroke-width="11.287" marker-start="none" marker-end="none" stroke-miterlimit="79.8403193612775"/>
      <path d="M 17.203,6.121 C 15.235,6.254 13.412,6.857 11.835,7.815 L 9.132,6.853 L 9.413,9.757 C 7.175,12.09 5.89,15.321 6.123,18.798 C 6.563,25.355 12.242,30.318 18.798,29.879 C 25.356,29.439 30.316,23.758 29.878,17.202 C 29.438,10.645 23.758,5.682 17.203,6.121 Z" fill="#ffffff" stroke-linejoin="miter" stroke-width="11.287" marker-start="none" marker-end="none" stroke-miterlimit="79.8403193612775"/>
      <path d="M 17.997,10.003 C 13.583,10.003 10.001,13.585 10.001,17.999 C 10.001,22.413 13.583,25.995 17.997,25.995 C 22.411,25.995 25.993,22.413 25.993,17.999 C 25.993,13.585 22.411,10.003 17.997,10.003 Z" fill="#dc4b4b" stroke-linejoin="miter" stroke-width="7.581" marker-start="none" marker-end="none" stroke-miterlimit="79.8403193612775"/>
      <path d="M 18.878,16.92 L 17.118,16.92 L 16.846,21.968 L 19.152,21.968 L 18.878,16.92 Z M 16.867,15.052 C 16.867,15.377 16.963,15.628 17.156,15.809 C 17.347,15.988 17.627,16.077 17.993,16.077 C 18.356,16.077 18.63,15.988 18.817,15.809 C 19.004,15.628 19.098,15.377 19.098,15.052 C 19.098,14.732 19,14.484 18.806,14.303 C 18.613,14.124 18.342,14.034 17.993,14.034 C 17.641,14.034 17.366,14.124 17.167,14.303 C 16.966,14.484 16.867,14.732 16.867,15.052 Z" fill-rule="nonzero" stroke-linejoin="round" stroke-width="8.739" fill="#ffffff" marker-start="none" marker-end="none" stroke-miterlimit="79.8403193612775"/>
     </g>
    </g>
   </g>
  </g>
 </g>
</svg>
